<svg width="24" height="24" viewBox="0 0 24 24" fill="none" xmlns="http://www.w3.org/2000/svg">
<mask id="mask0_197_3246" style="mask-type:alpha" maskUnits="userSpaceOnUse" x="0" y="0" width="24" height="24">
<rect width="24" height="24" fill="#D9D9D9"/>
</mask>
<g mask="url(#mask0_197_3246)">
<path d="M16.2071 19.2179C15.8166 19.6084 15.1834 19.6084 14.7929 19.2179L11.95 16.375C11.5634 15.9884 11.5634 15.3616 11.95 14.975C12.3366 14.5884 12.9634 14.5884 13.35 14.975L15.5 17.125L20.45 12.175C20.8366 11.7884 21.4634 11.7884 21.85 12.175C22.2366 12.5616 22.2366 13.1884 21.85 13.575L16.2071 19.2179ZM21 10H19V5H17V8H7V5H5V19H11V21H5C4.45 21 3.97917 20.8042 3.5875 20.4125C3.19583 20.0208 3 19.55 3 19V5C3 4.45 3.19583 3.97917 3.5875 3.5875C3.97917 3.19583 4.45 3 5 3H9.175C9.35833 2.41667 9.71667 1.9375 10.25 1.5625C10.7833 1.1875 11.3667 1 12 1C12.6667 1 13.2625 1.1875 13.7875 1.5625C14.3125 1.9375 14.6667 2.41667 14.85 3H19C19.55 3 20.0208 3.19583 20.4125 3.5875C20.8042 3.97917 21 4.45 21 5V10ZM12.7125 4.7125C12.9042 4.52083 13 4.28333 13 4C13 3.71667 12.9042 3.47917 12.7125 3.2875C12.5208 3.09583 12.2833 3 12 3C11.7167 3 11.4792 3.09583 11.2875 3.2875C11.0958 3.47917 11 3.71667 11 4C11 4.28333 11.0958 4.52083 11.2875 4.7125C11.4792 4.90417 11.7167 5 12 5C12.2833 5 12.5208 4.90417 12.7125 4.7125Z" fill="#323F4F" fill-opacity="0.5"/>
</g>
</svg>
