<svg width="4" height="4" viewBox="0 0 4 4" fill="none" xmlns="http://www.w3.org/2000/svg">
<path d="M1.30591 0.399007C1.41373 -0.13307 2.17416 -0.13307 2.28198 0.399007C2.34145 0.692436 2.64454 0.867429 2.92839 0.772211C3.4431 0.599552 3.82331 1.2581 3.41643 1.61752C3.19205 1.81573 3.19205 2.16572 3.41643 2.36393C3.82331 2.72334 3.4431 3.38189 2.92839 3.20923C2.64454 3.11402 2.34145 3.28901 2.28198 3.58244C2.17416 4.11452 1.41373 4.11452 1.30591 3.58244C1.24644 3.28901 0.943347 3.11402 0.659499 3.20923C0.144794 3.38189 -0.23542 2.72334 0.17146 2.36393C0.395845 2.16571 0.395845 1.81573 0.17146 1.61752C-0.23542 1.2581 0.144794 0.599552 0.659499 0.772211C0.943347 0.867429 1.24644 0.692436 1.30591 0.399007Z" fill="#323F4F" fill-opacity="0.5"/>
</svg>
