<svg width="24" height="24" viewBox="0 0 24 24" fill="none" xmlns="http://www.w3.org/2000/svg">
<path d="M20.8891 19.9015C20.8891 20.1929 20.772 20.4723 20.5637 20.6783C20.3553 20.8843 20.0727 21 19.778 21H18.1113C17.8166 21 17.534 20.8843 17.3257 20.6783C17.1173 20.4723 17.0002 20.1929 17.0002 19.9015V15.5077C17.0002 15.2163 17.1173 14.9369 17.3257 14.7309C17.534 14.5249 17.8166 14.4092 18.1113 14.4092H19.778C20.0727 14.4092 20.3553 14.5249 20.5637 14.7309C20.772 14.9369 20.8891 15.2163 20.8891 15.5077V19.9015ZM7.00022 19.9015C7.00022 20.1929 6.88315 20.4723 6.67478 20.6783C6.46641 20.8843 6.18379 21 5.88911 21H4.22244C3.92775 21 3.64514 20.8843 3.43677 20.6783C3.22839 20.4723 3.11133 20.1929 3.11133 19.9015V15.5077C3.11133 15.2163 3.22839 14.9369 3.43677 14.7309C3.64514 14.5249 3.92775 14.4092 4.22244 14.4092H5.88911C6.18379 14.4092 6.46641 14.5249 6.67478 14.7309C6.88315 14.9369 7.00022 15.2163 7.00022 15.5077V19.9015Z" fill="#374F68"/>
<path d="M6.99995 4.52327C9.22217 3.97404 14.7777 3.97404 16.9999 4.52327C19.1561 5.05602 19.7777 10.5648 19.7777 10.5648C19.7777 10.5648 20.8888 10.5648 20.8888 12.7618V17.1556C20.8888 17.1556 20.9572 19.3525 18.6666 19.3525H5.33328C3.04272 19.3525 3.11106 17.1556 3.11106 17.1556V12.7618C3.11106 12.7618 3.11106 10.5648 4.22217 10.5648C4.22217 10.5648 4.84439 5.05602 6.99995 4.52327Z" fill="#FFCC4D"/>
<path d="M11.9999 10.0156C14.1694 10.0156 16.7905 10.1254 18.6666 10.3242L18.111 7.26939C17.5555 5.62169 14.2221 5.62169 11.9999 5.62169C9.7777 5.62169 6.44436 5.62169 5.88881 7.26939L5.33325 10.3242C7.20936 10.1254 9.83047 10.0156 11.9999 10.0156Z" fill="#F2F9FF"/>
<path d="M4.77778 10.2899C4.77778 10.5084 4.68998 10.718 4.5337 10.8725C4.37742 11.027 4.16546 11.1138 3.94444 11.1138H2.83333C2.61232 11.1138 2.40036 11.027 2.24408 10.8725C2.0878 10.718 2 10.5084 2 10.2899C2 10.0714 2.0878 9.86187 2.24408 9.70737C2.40036 9.55287 2.61232 9.46607 2.83333 9.46607H3.94444C4.16546 9.46607 4.37742 9.55287 4.5337 9.70737C4.68998 9.86187 4.77778 10.0714 4.77778 10.2899ZM19.2222 10.2899C19.2222 10.5084 19.31 10.718 19.4663 10.8725C19.6226 11.027 19.8345 11.1138 20.0556 11.1138H21.1667C21.3877 11.1138 21.5996 11.027 21.7559 10.8725C21.9122 10.718 22 10.5084 22 10.2899C22 10.0714 21.9122 9.86187 21.7559 9.70737C21.5996 9.55287 21.3877 9.46607 21.1667 9.46607H20.0556C19.8345 9.46607 19.6226 9.55287 19.4663 9.70737C19.31 9.86187 19.2222 10.0714 19.2222 10.2899Z" fill="#FFCC4D"/>
<path d="M15.8887 13.8599H8.11091C6.74646 13.8599 5.61868 12.0276 5.40646 11.6607C5.3702 11.5981 5.34677 11.5291 5.33751 11.4575C5.32824 11.386 5.33332 11.3133 5.35246 11.2437C5.39111 11.1031 5.48468 10.9834 5.61257 10.911C5.74047 10.8386 5.89221 10.8194 6.03443 10.8576C6.17664 10.8959 6.29768 10.9884 6.37091 11.1148C6.75646 11.7788 7.57591 12.7614 8.11091 12.7614H15.8887C16.4348 12.7614 17.2554 11.8524 17.6376 11.2384C17.6755 11.1764 17.7255 11.1225 17.7846 11.0797C17.8437 11.0369 17.9108 11.0061 17.982 10.989C18.0532 10.972 18.1271 10.969 18.1995 10.9803C18.2719 10.9916 18.3412 11.0169 18.4037 11.0548C18.4661 11.0928 18.5203 11.1425 18.5632 11.2012C18.6061 11.26 18.6368 11.3265 18.6536 11.397C18.6704 11.4675 18.6729 11.5406 18.661 11.6121C18.6491 11.6835 18.623 11.752 18.5842 11.8134C18.4537 12.0232 17.2704 13.8599 15.8887 13.8599Z" fill="#FFAC33"/>
<path d="M5.33355 17.1553H3.11133V14.9583H5.33355V17.1553ZM20.8891 17.1553H18.6669V14.9583H20.8891V17.1553Z" fill="#F4900C"/>
<path d="M7.5555 16.0568C7.5555 16.3481 7.43844 16.6275 7.23006 16.8335C7.02169 17.0395 6.73908 17.1553 6.44439 17.1553H5.33328C5.03859 17.1553 4.75598 17.0395 4.5476 16.8335C4.33923 16.6275 4.22217 16.3481 4.22217 16.0568C4.22217 15.7655 4.33923 15.4861 4.5476 15.2801C4.75598 15.0741 5.03859 14.9583 5.33328 14.9583H6.44439C6.73908 14.9583 7.02169 15.0741 7.23006 15.2801C7.43844 15.4861 7.5555 15.7655 7.5555 16.0568ZM19.7777 16.0568C19.7777 15.7655 19.6607 15.4861 19.4523 15.2801C19.2439 15.0741 18.9613 14.9583 18.6666 14.9583H17.5555C17.2608 14.9583 16.9782 15.0741 16.7698 15.2801C16.5615 15.4861 16.4444 15.7655 16.4444 16.0568C16.4444 16.3481 16.5615 16.6275 16.7698 16.8335C16.9782 17.0395 17.2608 17.1553 17.5555 17.1553H18.6666C18.9613 17.1553 19.2439 17.0395 19.4523 16.8335C19.6607 16.6275 19.7777 16.3481 19.7777 16.0568Z" fill="white"/>
<path d="M15.8891 16.0568C15.8891 16.3481 15.772 16.6275 15.5637 16.8335C15.3553 17.0395 15.0727 17.1553 14.778 17.1553H9.22244C8.92775 17.1553 8.64514 17.0395 8.43677 16.8335C8.22839 16.6275 8.11133 16.3481 8.11133 16.0568C8.11133 15.7655 8.22839 15.4861 8.43677 15.2801C8.64514 15.0741 8.92775 14.9583 9.22244 14.9583H14.778C15.0727 14.9583 15.3553 15.0741 15.5637 15.2801C15.772 15.4861 15.8891 15.7655 15.8891 16.0568Z" fill="#66757F"/>
</svg>
