<svg width="24" height="24" viewBox="0 0 24 24" fill="none" xmlns="http://www.w3.org/2000/svg">
<path d="M2 11.4432C2 16.5276 6.01016 20.7177 11.0439 20.9371L11.46 20.9821H19.5972C20.4865 20.9821 20.9334 19.9083 20.3067 19.2773L19.3063 18.2702C18.938 17.8994 18.9222 17.3103 19.2196 16.8806C19.6389 16.275 19.9908 15.6095 20.2677 14.9134C20.6839 13.8448 20.9201 12.6918 20.9201 11.4713C20.9201 6.2407 16.6794 2 11.4489 2C6.21828 2.00566 2 6.21828 2 11.4432Z" fill="#2589F4"/>
<path d="M11.6001 14.3999C11.0478 14.3999 10.6001 14.8476 10.6001 15.3999C10.6001 15.9522 11.0478 16.3999 11.6001 16.3999C12.1524 16.3999 12.6001 15.9522 12.6001 15.3999C12.6001 14.8476 12.1524 14.3999 11.6001 14.3999ZM11.6001 6.3999C11.0478 6.3999 10.6001 6.84762 10.6001 7.3999V12.3999C10.6001 12.9522 11.0478 13.3999 11.6001 13.3999C12.1524 13.3999 12.6001 12.9522 12.6001 12.3999V7.3999C12.6001 6.84762 12.1524 6.3999 11.6001 6.3999Z" fill="#FFCC4D"/>
</svg>
