<svg width="24" height="24" viewBox="0 0 24 24" fill="none" xmlns="http://www.w3.org/2000/svg">
<path d="M9.08341 9.50016C9.08341 18.4585 9.17091 18.121 8.85841 18.6668C8.71228 18.9199 8.50215 19.1302 8.24911 19.2764C7.99607 19.4227 7.70902 19.4999 7.41675 19.5002H4.08341C3.64139 19.5002 3.21746 19.3246 2.9049 19.012C2.59234 18.6994 2.41675 18.2755 2.41675 17.8335V9.50016C2.41675 9.05814 2.59234 8.63421 2.9049 8.32165C3.21746 8.00909 3.64139 7.8335 4.08341 7.8335H7.41675C7.85878 7.8335 8.2827 8.00909 8.59526 8.32165C8.90782 8.63421 9.08341 9.05814 9.08341 9.50016Z" fill="#6FABE6"/>
<path d="M7.41675 7.83322C3.73341 7.83322 3.92508 7.81239 3.66675 7.88739V13.4749C3.66675 14.8518 4.21373 16.1723 5.18735 17.146C6.16098 18.1196 7.4815 18.6666 8.85841 18.6666C9.17091 18.1249 9.08341 18.4582 9.08341 9.49989C9.08341 9.05786 8.90782 8.63394 8.59526 8.32138C8.2827 8.00882 7.85878 7.83322 7.41675 7.83322ZM6.92508 11.0916C6.86361 11.2283 6.76639 11.3459 6.64365 11.4321C6.52092 11.5182 6.37723 11.5696 6.22773 11.5809C6.07823 11.5921 5.92845 11.5629 5.79418 11.4962C5.65992 11.4294 5.54614 11.3277 5.46484 11.2018C5.38354 11.0758 5.33773 10.9302 5.33224 10.7804C5.32675 10.6306 5.36178 10.482 5.43364 10.3505C5.50551 10.2189 5.61154 10.1091 5.74056 10.0328C5.86958 9.95639 6.01682 9.91624 6.16675 9.91656C6.30574 9.91685 6.44246 9.9519 6.56444 10.0185C6.68643 10.0851 6.78981 10.1812 6.86519 10.298C6.94056 10.4148 6.98552 10.5486 6.99598 10.6872C7.00644 10.8258 6.98207 10.9648 6.92508 11.0916Z" fill="#82BCF4"/>
<path d="M7.41667 10.3335C7.41698 10.4835 7.37684 10.6307 7.30047 10.7597C7.22411 10.8888 7.11435 10.9948 6.98276 11.0667C6.85118 11.1385 6.70265 11.1736 6.55282 11.1681C6.40299 11.1626 6.25742 11.1168 6.13145 11.0355C6.00548 10.9542 5.90377 10.8404 5.83706 10.7061C5.77034 10.5718 5.74108 10.4221 5.75236 10.2726C5.76365 10.1231 5.81506 9.97937 5.90117 9.85664C5.98729 9.73391 6.10492 9.63669 6.24167 9.57522C6.36844 9.51823 6.50745 9.49386 6.64605 9.50432C6.78465 9.51478 6.91844 9.55974 7.03522 9.63511C7.152 9.71048 7.24808 9.81387 7.3147 9.93586C7.38132 10.0578 7.41638 10.1946 7.41667 10.3335Z" fill="#DAD7E5"/>
<path d="M7.34178 10.6748C7.18785 10.7432 7.01679 10.7634 6.85116 10.7326C6.68554 10.7019 6.53312 10.6217 6.414 10.5026C6.29488 10.3834 6.21466 10.231 6.18392 10.0654C6.15317 9.89977 6.17335 9.72872 6.24178 9.57479C6.39571 9.50636 6.56677 9.48618 6.73239 9.51693C6.89802 9.54767 7.05044 9.62789 7.16956 9.74701C7.28868 9.86613 7.3689 10.0185 7.39964 10.1842C7.43038 10.3498 7.41021 10.5209 7.34178 10.6748Z" fill="#EDEBF2"/>
<path d="M21.2166 13.7165C20.9824 13.951 20.6647 14.0829 20.3333 14.0832C20.6648 14.0832 20.9827 14.2149 21.2171 14.4493C21.4516 14.6838 21.5833 15.0017 21.5833 15.3332C21.5833 15.6647 21.4516 15.9827 21.2171 16.2171C20.9827 16.4515 20.6648 16.5832 20.3333 16.5832C20.5803 16.5834 20.8218 16.6569 21.0271 16.7942C21.2325 16.9316 21.3925 17.1267 21.4871 17.355C21.5816 17.5833 21.6063 17.8344 21.5582 18.0768C21.5101 18.3191 21.3912 18.5417 21.2166 18.7165C20.7166 19.2165 20.9041 19.0832 14.0833 19.0832L9.08325 17.8332V10.3332C10.1568 9.88403 11.1173 9.20239 11.8958 8.33738C12.3874 7.75821 13.1791 5.90821 13.4166 4.95405L13.5416 4.45821C13.8874 3.08321 16.1666 3.69155 16.1666 5.33321C16.1666 6.31238 15.6541 8.15821 15.3333 9.08321C20.6499 9.08321 20.7208 8.95405 21.2166 9.44988C21.3912 9.62469 21.5101 9.84732 21.5582 10.0897C21.6063 10.332 21.5816 10.5831 21.4871 10.8114C21.3925 11.0397 21.2325 11.2348 21.0271 11.3722C20.8218 11.5096 20.5803 11.583 20.3333 11.5832C20.5803 11.5834 20.8218 11.6569 21.0271 11.7942C21.2325 11.9316 21.3925 12.1267 21.4871 12.355C21.5816 12.5833 21.6063 12.8344 21.5582 13.0768C21.5101 13.3191 21.3912 13.5417 21.2166 13.7165Z" fill="#F6CCAF"/>
<path d="M13.1458 7.50417C13.7624 6.77917 14.4708 4.89167 14.7666 3.72084C14.6377 3.68845 14.5037 3.68186 14.3723 3.70143C14.2409 3.72101 14.1146 3.76637 14.0008 3.8349C13.8869 3.90344 13.7877 3.9938 13.7089 4.10079C13.6301 4.20778 13.5733 4.32929 13.5416 4.45834C13.2345 5.84106 12.6767 7.15582 11.8958 8.3375C11.6482 8.61774 11.3778 8.87696 11.0874 9.1125C11.867 8.70814 12.5649 8.16283 13.1458 7.50417ZM14.6541 18.0792C13.4207 17.7709 12.3257 17.0593 11.5429 16.0576C10.76 15.0559 10.3343 13.8213 10.3333 12.55V9.6625C9.93008 9.9104 9.5127 10.1344 9.08325 10.3333V17.8333L14.0833 19.0833H20.3333C20.5911 19.0826 20.8425 19.0021 21.0529 18.8529C21.2632 18.7038 21.4223 18.4931 21.5083 18.25C15.6791 18.25 15.5583 18.3042 14.6541 18.0792Z" fill="#EDB996"/>
</svg>
