<svg width="24" height="24" viewBox="0 0 24 24" fill="none" xmlns="http://www.w3.org/2000/svg">
<path d="M18.1826 10.9038H4.31159L1.24707 15.1802V21.3354H21.2471V15.1802L18.1826 10.9038Z" fill="#FBB03A"/>
<path d="M17.4805 17H6.51515C6.23377 17 6 16.7728 6 16.4898V1.51018C6 1.23151 6.22944 1 6.51515 1H17.4848C17.7662 1 18 1.22722 18 1.51018V16.4898C17.9957 16.7728 17.7662 17 17.4805 17Z" fill="#CCCCCB"/>
<path d="M16.5944 17.7071V5.3652L13.3076 2H4.89786C4.72897 2 4.59473 2.13289 4.59473 2.30008V17.6985C4.59473 17.8657 4.72897 17.9986 4.89786 17.9986H16.2826C16.4429 18.0158 16.5944 17.87 16.5944 17.7071Z" fill="#F3F2F3"/>
<path d="M16.5949 5.3652L13.3081 2V5.15514C13.3081 5.27089 13.4077 5.35234 13.5073 5.35234L16.5949 5.3652Z" fill="#E6E6E5"/>
<path d="M21.2471 15.1802V21.3354H1.24707V15.1802H7.62894L8.49642 16.5577H13.9977L14.8652 15.1802H21.2471Z" fill="#FFCC4D"/>
<path d="M12.9037 19.5613H9.59072C9.2507 19.5613 8.97607 19.2867 8.97607 18.9467C8.97607 18.6067 9.2507 18.332 9.59072 18.332H12.9037C13.2437 18.332 13.5184 18.6067 13.5184 18.9467C13.5184 19.2867 13.2437 19.5613 12.9037 19.5613Z" fill="#F2F2F3"/>
<path d="M10.6366 4.45215L11.7351 6.68406L14.2067 7.04151L12.4195 8.78519L12.8423 11.2394L10.6366 10.0799L8.42644 11.2394L8.84928 8.78519L7.06201 7.04151L9.53368 6.68406L10.6366 4.45215Z" fill="url(#paint0_linear_197_2015)"/>
<defs>
<linearGradient id="paint0_linear_197_2015" x1="10.6344" y1="4.45215" x2="10.6344" y2="11.2394" gradientUnits="userSpaceOnUse">
<stop stop-color="#2589F4"/>
<stop offset="1" stop-color="#25CBF4"/>
</linearGradient>
</defs>
</svg>
