<svg width="24" height="24" viewBox="0 0 24 24" fill="none" xmlns="http://www.w3.org/2000/svg">
<path d="M20.7585 21.5142C19.8494 22.4585 18.5487 23 17.1896 23H8.80879C7.45044 23 6.14976 22.4585 5.23992 21.5142C4.32767 20.5662 3.88477 19.2943 4.02573 18.0223C4.06738 17.6473 4.12504 17.261 4.20193 16.8657C5.00124 12.7535 7.38236 9.88925 9.23969 8.21L9.47275 8H16.5272L16.7603 8.21C18.6176 9.8885 20.9987 12.7527 21.798 16.8657C21.8749 17.261 21.9326 17.6473 21.9742 18.0223C22.1152 19.2935 21.6731 20.5662 20.7601 21.5142H20.7585Z" fill="#FFCC4D"/>
<path d="M16.8571 6H9.14286C7.96171 6 7 6.8976 7 8C7 9.1024 7.96171 10 9.14286 10H16.8571C18.0383 10 19 9.1024 19 8C19 6.8976 18.0383 6 16.8571 6Z" fill="#FBB03A"/>
<path d="M18.8058 4.79895L17.3538 7.55547C17.2112 7.82579 16.894 8 16.545 8H9.45769C9.10776 8 8.79149 7.82579 8.64885 7.55547L7.18001 4.76966C6.84956 4.211 6.97891 3.53069 7.52817 3.06589C8.07655 2.60034 8.88008 2.49071 9.57375 2.78431L10.2807 3.08391L11.5281 2.37958C12.4237 1.87347 13.5807 1.87347 14.4764 2.37958L15.7238 3.08391L16.4307 2.78431C17.1262 2.49146 17.9279 2.60109 18.4763 3.06589C19.0247 3.53069 19.1549 4.211 18.8076 4.7997L18.8058 4.79895Z" fill="#FFCC4D"/>
<circle cx="13" cy="16" r="4" fill="#FBB03A"/>
<path d="M15.6655 16.0126H15.0395L15.2058 15.4479H15.6655C15.7542 15.4479 15.8393 15.4148 15.902 15.356C15.9648 15.2972 16 15.2174 16 15.1342C16 15.0509 15.9648 14.9711 15.902 14.9123C15.8393 14.8535 15.7542 14.8204 15.6655 14.8204H15.3893L15.5135 14.3973C15.5252 14.3576 15.5284 14.3161 15.523 14.2752C15.5176 14.2343 15.5036 14.1948 15.4819 14.1589C15.4602 14.1231 15.4312 14.0916 15.3965 14.0663C15.3619 14.041 15.3222 14.0223 15.2799 14.0114C15.2375 14.0004 15.1933 13.9974 15.1497 14.0025C15.1061 14.0076 15.064 14.0207 15.0258 14.0411C14.9875 14.0614 14.954 14.0886 14.927 14.1211C14.9 14.1536 14.8801 14.1908 14.8684 14.2306L14.1698 16.6097L13.3173 14.2144C13.2951 14.152 13.2525 14.0977 13.1955 14.0592C13.1386 14.0207 13.0702 14 13 14C12.9298 14 12.8614 14.0207 12.8045 14.0592C12.7475 14.0977 12.7049 14.152 12.6827 14.2144L11.8302 16.6097L11.1306 14.2306C11.1189 14.1908 11.099 14.1536 11.072 14.1211C11.0451 14.0886 11.0115 14.0614 10.9733 14.0411C10.9351 14.0207 10.893 14.0076 10.8494 14.0025C10.8058 13.9974 10.7615 14.0004 10.7192 14.0114C10.6768 14.0223 10.6372 14.041 10.6025 14.0663C10.5678 14.0916 10.5388 14.1231 10.5171 14.1589C10.4954 14.1948 10.4815 14.2343 10.476 14.2752C10.4706 14.3161 10.4738 14.3576 10.4855 14.3973L10.6107 14.8204H10.3345C10.2458 14.8204 10.1607 14.8535 10.098 14.9123C10.0352 14.9711 10 15.0509 10 15.1342C10 15.2174 10.0352 15.2972 10.098 15.356C10.1607 15.4148 10.2458 15.4479 10.3345 15.4479H10.7942L10.9605 16.0126H10.3345C10.2458 16.0126 10.1607 16.0457 10.098 16.1045C10.0352 16.1634 10 16.2432 10 16.3264C10 16.4096 10.0352 16.4894 10.098 16.5482C10.1607 16.6071 10.2458 16.6401 10.3345 16.6401H11.145L11.4775 17.7696C11.4967 17.8343 11.5374 17.8916 11.5938 17.9329C11.6502 17.9743 11.7193 17.9976 11.7909 17.9994C11.8624 18.0012 11.9327 17.9814 11.9914 17.943C12.0501 17.9045 12.0941 17.8494 12.1169 17.7858L13 15.3045L13.8831 17.7858C13.9053 17.8482 13.9479 17.9024 14.0049 17.9409C14.0618 17.9793 14.1302 18 14.2004 18H14.209C14.2807 17.9983 14.3499 17.975 14.4064 17.9335C14.4629 17.892 14.5036 17.8345 14.5225 17.7696L14.855 16.6401H15.6655C15.7542 16.6401 15.8393 16.6071 15.902 16.5482C15.9648 16.4894 16 16.4096 16 16.3264C16 16.2432 15.9648 16.1634 15.902 16.1045C15.8393 16.0457 15.7542 16.0126 15.6655 16.0126Z" fill="#F4EFE0"/>
</svg>
