<svg width="120" height="216" viewBox="0 0 120 216" fill="none" xmlns="http://www.w3.org/2000/svg">
<circle cx="55.5" cy="52" r="4" fill="#0C1723" fill-opacity="0.6"/>
<circle cx="71.5" cy="40" r="4" fill="#323F4F" fill-opacity="0.5"/>
<circle cx="87.5" cy="28" r="4" fill="#6F7D8C" fill-opacity="0.4"/>
<g filter="url(#filter0_d_161_1945)">
<path d="M66.8355 172.583C70.8931 172.583 74.1876 176.933 74.1876 182.291C74.1876 187.65 70.8931 192 66.8355 192C62.7779 192 59.4834 187.65 59.4834 182.291C59.4834 176.933 62.7779 172.583 66.8355 172.583Z" fill="url(#paint0_linear_161_1945)"/>
<path d="M66.6071 172.347C69.6909 172.347 72.1947 175.654 72.1947 179.726C72.1947 183.798 69.6909 187.105 66.6071 187.105C63.5233 187.105 61.0195 183.798 61.0195 179.726C61.0195 175.654 63.5233 172.347 66.6071 172.347Z" fill="#79DDFF"/>
<path d="M88.4383 156.811L86.8674 169.151C85.5321 175.046 79.8691 179.959 74.1433 179.959H68.4881C62.2046 179.802 56.2352 173.238 55.764 168.679L54.4287 155.946C54.4287 150.216 62.7622 145.256 68.4881 145.256H74.1433C79.8691 145.256 88.4383 151.081 88.4383 156.811Z" fill="url(#paint1_linear_161_1945)"/>
<path d="M78.895 155.632C80.6072 155.632 81.9975 157.023 81.9975 158.737C81.9975 160.45 80.6072 161.841 78.895 161.841C77.1827 161.841 75.7925 160.45 75.7925 158.737C75.7925 157.023 77.1827 155.632 78.895 155.632Z" fill="#2589F4"/>
<path d="M30.9329 98.7827C35.3111 98.7827 38.8659 102.34 38.8659 106.721C38.8659 111.103 35.3111 114.66 30.9329 114.66C26.5548 114.66 23 111.103 23 106.721C23 102.34 26.5548 98.7827 30.9329 98.7827Z" fill="#092948"/>
<path d="M109.948 98.7827C114.326 98.7827 117.881 102.34 117.881 106.721C117.881 111.103 114.326 114.66 109.948 114.66C105.57 114.66 102.015 111.103 102.015 106.721C102.015 102.34 105.57 98.7827 109.948 98.7827Z" fill="#092948"/>
<path d="M70.9389 72C93.4091 72 110.526 88.8521 112.567 109.414C114.924 133.152 93.4091 141.641 70.9389 141.641C48.4687 141.641 27.5826 132.994 29.9389 109.414C31.9936 88.8533 48.4687 72 70.9389 72Z" fill="url(#paint2_linear_161_1945)"/>
<path d="M73.4595 89.0874C88.964 89.0874 101.209 101.033 102.654 115.218C104.466 132.999 88.9553 130.458 73.4509 130.458C57.9464 130.458 43.0449 133.471 45.0124 114.825C46.5086 100.646 57.9551 89.0874 73.4595 89.0874Z" fill="#092948"/>
<path d="M89.1359 107.527C90.8711 107.527 92.2777 108.935 92.2777 110.671C92.2777 112.408 90.8711 113.815 89.1359 113.815C87.4007 113.815 85.9941 112.408 85.9941 110.671C85.9941 108.935 87.4007 107.527 89.1359 107.527Z" fill="#2589F4"/>
<path d="M58.6608 107.527C60.396 107.527 61.8026 108.935 61.8026 110.671C61.8026 112.408 60.396 113.815 58.6608 113.815C56.9256 113.815 55.519 112.408 55.519 110.671C55.519 108.935 56.9256 107.527 58.6608 107.527Z" fill="#2589F4"/>
<path d="M68.5091 118.918C67.5948 118.903 66.8708 119.661 67.1051 120.544C67.6691 122.672 69.3771 126.076 74.5264 125.886C78.6135 125.736 80.1866 122.74 80.779 120.788C81.0469 119.905 80.3451 119.114 79.423 119.098L68.5091 118.918Z" fill="#2589F4"/>
<path d="M112.672 110.054C113.013 109.99 113.341 110.216 113.404 110.558L112.786 110.672C113.369 110.564 113.402 110.559 113.404 110.559L113.405 110.559C113.405 110.56 113.405 110.561 113.405 110.562C113.405 110.563 113.406 110.565 113.406 110.568C113.407 110.573 113.408 110.579 113.41 110.587C113.412 110.604 113.416 110.627 113.42 110.655C113.429 110.713 113.44 110.795 113.452 110.899C113.475 111.108 113.5 111.406 113.508 111.778C113.526 112.519 113.48 113.555 113.226 114.747C112.716 117.14 111.37 120.152 108.059 122.65C102.828 126.596 96.4774 128.15 91.4746 128.727C88.9675 129.015 86.7841 129.06 85.226 129.033C84.4467 129.019 83.8229 128.987 83.3922 128.959C83.1768 128.944 83.0095 128.931 82.8952 128.921C82.8381 128.916 82.7943 128.912 82.7642 128.909C82.7492 128.907 82.7376 128.906 82.7295 128.905C82.7255 128.905 82.7223 128.905 82.72 128.904C82.7189 128.904 82.7179 128.904 82.7172 128.904C82.7169 128.904 82.7165 128.904 82.7163 128.904C82.716 128.904 82.7158 128.904 82.7826 128.279L82.7157 128.904C82.3707 128.867 82.121 128.557 82.1579 128.212C82.1949 127.866 82.5044 127.616 82.8495 127.653C82.8497 127.653 82.8502 127.653 82.8507 127.653C82.852 127.654 82.8541 127.654 82.8571 127.654C82.8633 127.655 82.8729 127.656 82.886 127.657C82.9121 127.66 82.9518 127.663 83.0047 127.668C83.1106 127.677 83.2689 127.69 83.4751 127.703C83.8875 127.731 84.491 127.762 85.2481 127.775C86.7631 127.802 88.8898 127.758 91.331 127.477C96.2247 126.913 102.323 125.402 107.303 121.646C110.332 119.361 111.539 116.635 111.997 114.485C112.226 113.406 112.268 112.47 112.252 111.807C112.244 111.476 112.222 111.214 112.203 111.038C112.193 110.95 112.184 110.884 112.177 110.841C112.174 110.82 112.172 110.804 112.17 110.795C112.169 110.791 112.169 110.788 112.168 110.786V110.785C112.106 110.444 112.331 110.117 112.672 110.054Z" fill="#79DDFF"/>
<path d="M88.6343 126.864C89.5018 126.864 90.2051 127.568 90.2051 128.436C90.2051 129.304 89.5018 130.008 88.6343 130.008H82.9791C82.1115 130.008 81.4082 129.304 81.4082 128.436C81.4082 127.568 82.1115 126.864 82.9791 126.864H88.6343Z" fill="#79DDFF"/>
<path d="M104.236 146.162L113.049 157.848C115.549 161.029 116.669 164.734 114.489 167.106C112.627 169.132 108.505 167.989 104.965 165.661L93.2143 157.583C90.0628 154.537 89.975 149.512 93.0184 146.358C96.0618 143.204 101.084 143.116 104.236 146.162Z" fill="url(#paint3_linear_161_1945)"/>
<path d="M50.1852 157.295L38.0621 165.492C34.7575 167.824 31.0018 168.749 28.7482 166.446C26.8243 164.479 28.1806 160.42 30.6895 157.004L39.3651 145.684C42.5694 142.694 47.5892 142.869 50.5771 146.075C53.5649 149.282 53.3895 154.305 50.1852 157.295Z" fill="url(#paint4_linear_161_1945)"/>
</g>
<defs>
<filter id="filter0_d_161_1945" x="0" y="64" width="121" height="144" filterUnits="userSpaceOnUse" color-interpolation-filters="sRGB">
<feFlood flood-opacity="0" result="BackgroundImageFix"/>
<feColorMatrix in="SourceAlpha" type="matrix" values="0 0 0 0 0 0 0 0 0 0 0 0 0 0 0 0 0 0 127 0" result="hardAlpha"/>
<feOffset dx="-11" dy="4"/>
<feGaussianBlur stdDeviation="6"/>
<feComposite in2="hardAlpha" operator="out"/>
<feColorMatrix type="matrix" values="0 0 0 0 0 0 0 0 0 0 0 0 0 0 0 0 0 0 0.16 0"/>
<feBlend mode="normal" in2="BackgroundImageFix" result="effect1_dropShadow_161_1945"/>
<feBlend mode="normal" in="SourceGraphic" in2="effect1_dropShadow_161_1945" result="shape"/>
</filter>
<linearGradient id="paint0_linear_161_1945" x1="66.5308" y1="173.035" x2="66.5308" y2="193.962" gradientUnits="userSpaceOnUse">
<stop stop-color="#DFDFDF"/>
<stop offset="0.5" stop-color="#F5F5F5"/>
<stop offset="1" stop-color="#B5D6F4"/>
</linearGradient>
<linearGradient id="paint1_linear_161_1945" x1="41.1548" y1="159.012" x2="93.9364" y2="160.267" gradientUnits="userSpaceOnUse">
<stop stop-color="#DFDFDF"/>
<stop offset="0.5" stop-color="#F5F5F5"/>
<stop offset="1" stop-color="white"/>
</linearGradient>
<linearGradient id="paint2_linear_161_1945" x1="4.96193" y1="110.357" x2="100.157" y2="110.043" gradientUnits="userSpaceOnUse">
<stop stop-color="#DFDFDF"/>
<stop offset="0.5" stop-color="#F5F5F5"/>
<stop offset="1" stop-color="#F1F6FB"/>
</linearGradient>
<linearGradient id="paint3_linear_161_1945" x1="87.5734" y1="140.383" x2="115.545" y2="168.837" gradientUnits="userSpaceOnUse">
<stop stop-color="#DFDFDF"/>
<stop offset="0.5" stop-color="#F5F5F5"/>
<stop offset="1" stop-color="white"/>
</linearGradient>
<linearGradient id="paint4_linear_161_1945" x1="56.8245" y1="140.946" x2="26.9273" y2="167.368" gradientUnits="userSpaceOnUse">
<stop stop-color="#DFDFDF"/>
<stop offset="0.5" stop-color="#F5F5F5"/>
<stop offset="1" stop-color="white"/>
</linearGradient>
</defs>
</svg>
