<svg width="120" height="144" viewBox="0 0 120 144" fill="none" xmlns="http://www.w3.org/2000/svg">
<g filter="url(#filter0_d_128_3641)">
<path d="M66.8355 108.583C70.8931 108.583 74.1876 112.933 74.1876 118.291C74.1876 123.65 70.8931 128 66.8355 128C62.7779 128 59.4834 123.65 59.4834 118.291C59.4834 112.933 62.7779 108.583 66.8355 108.583Z" fill="url(#paint0_linear_128_3641)"/>
<path d="M66.6071 108.347C69.6909 108.347 72.1947 111.654 72.1947 115.726C72.1947 119.798 69.6909 123.105 66.6071 123.105C63.5233 123.105 61.0195 119.798 61.0195 115.726C61.0195 111.654 63.5233 108.347 66.6071 108.347Z" fill="#79DDFF"/>
<path d="M88.4383 92.8107L86.8674 105.151C85.5321 111.046 79.8691 115.959 74.1433 115.959H68.4881C62.2046 115.802 56.2352 109.238 55.764 104.679L54.4287 91.9461C54.4287 86.2161 62.7622 81.2563 68.4881 81.2563H74.1433C79.8691 81.2563 88.4383 87.0807 88.4383 92.8107Z" fill="url(#paint1_linear_128_3641)"/>
<path d="M78.895 91.6318C80.6072 91.6318 81.9975 93.0231 81.9975 94.7366C81.9975 96.4501 80.6072 97.8413 78.895 97.8413C77.1827 97.8413 75.7925 96.4501 75.7925 94.7366C75.7925 93.0231 77.1827 91.6318 78.895 91.6318Z" fill="#2589F4"/>
<path d="M30.9329 34.7827C35.3111 34.7827 38.8659 38.3401 38.8659 42.7214C38.8659 47.1028 35.3111 50.6601 30.9329 50.6601C26.5548 50.6601 23 47.1028 23 42.7214C23 38.3401 26.5548 34.7827 30.9329 34.7827Z" fill="#092948"/>
<path d="M109.948 34.7827C114.326 34.7827 117.881 38.3401 117.881 42.7214C117.881 47.1028 114.326 50.6601 109.948 50.6601C105.57 50.6601 102.015 47.1028 102.015 42.7214C102.015 38.3401 105.57 34.7827 109.948 34.7827Z" fill="#092948"/>
<path d="M70.9389 8C93.4091 8 110.526 24.8521 112.567 45.4141C114.924 69.1517 93.4091 77.6406 70.9389 77.6406C48.4687 77.6406 27.5826 68.9945 29.9389 45.4141C31.9936 24.8533 48.4687 8 70.9389 8Z" fill="url(#paint2_linear_128_3641)"/>
<path d="M73.4595 25.0874C88.964 25.0874 101.209 37.0334 102.654 51.2175C104.466 68.9994 88.9553 66.4583 73.4509 66.4583C57.9464 66.4583 43.0449 69.4712 45.0124 50.8246C46.5086 36.6457 57.9551 25.0874 73.4595 25.0874Z" fill="#092948"/>
<path d="M89.1359 43.5273C90.8711 43.5273 92.2777 44.935 92.2777 46.6714C92.2777 48.4078 90.8711 49.8154 89.1359 49.8154C87.4007 49.8154 85.9941 48.4078 85.9941 46.6714C85.9941 44.935 87.4007 43.5273 89.1359 43.5273Z" fill="#2589F4"/>
<path d="M58.6608 43.5273C60.396 43.5273 61.8026 44.935 61.8026 46.6714C61.8026 48.4078 60.396 49.8154 58.6608 49.8154C56.9256 49.8154 55.519 48.4078 55.519 46.6714C55.519 44.935 56.9256 43.5273 58.6608 43.5273Z" fill="#2589F4"/>
<path d="M68.5091 54.9183C67.5948 54.9033 66.8708 55.6607 67.1051 56.5445C67.6691 58.6724 69.3771 62.0761 74.5264 61.8863C78.6135 61.7355 80.1866 58.7401 80.779 56.7877C81.0469 55.9052 80.3451 55.1136 79.423 55.0984L68.5091 54.9183Z" fill="#2589F4"/>
<path d="M112.672 46.0535C113.013 45.9905 113.341 46.2162 113.404 46.5577L112.786 46.6719C113.369 46.5643 113.402 46.5586 113.404 46.5586L113.405 46.5592C113.405 46.5598 113.405 46.5608 113.405 46.5617C113.405 46.5633 113.406 46.5654 113.406 46.5678C113.407 46.5728 113.408 46.5793 113.41 46.5875C113.412 46.6038 113.416 46.6265 113.42 46.6553C113.429 46.7129 113.44 46.795 113.452 46.8994C113.475 47.1081 113.5 47.4065 113.508 47.7775C113.526 48.5189 113.48 49.5552 113.226 50.7475C112.716 53.1402 111.37 56.1522 108.059 58.6497C102.828 62.5962 96.4774 64.1504 91.4746 64.7265C88.9675 65.0152 86.7841 65.06 85.226 65.0326C84.4467 65.0189 83.8229 64.9872 83.3922 64.9586C83.1768 64.9444 83.0095 64.9309 82.8952 64.9209C82.8381 64.9159 82.7943 64.9115 82.7642 64.9086C82.7492 64.9071 82.7376 64.906 82.7295 64.9052C82.7255 64.9048 82.7223 64.9045 82.72 64.9043C82.7189 64.9042 82.7179 64.9041 82.7172 64.904C82.7169 64.9039 82.7165 64.904 82.7163 64.904C82.716 64.904 82.7158 64.9038 82.7826 64.2786L82.7157 64.9037C82.3707 64.8667 82.121 64.5569 82.1579 64.2116C82.1949 63.8663 82.5044 63.6165 82.8495 63.6534C82.8497 63.6535 82.8502 63.6534 82.8507 63.6534C82.852 63.6536 82.8541 63.6537 82.8571 63.654C82.8633 63.6547 82.8729 63.6558 82.886 63.6571C82.9121 63.6597 82.9518 63.6632 83.0047 63.6679C83.1106 63.6771 83.2689 63.6898 83.4751 63.7035C83.8875 63.7308 84.491 63.7617 85.2481 63.775C86.7631 63.8017 88.8898 63.758 91.331 63.4769C96.2247 62.9133 102.323 61.402 107.303 57.6457C110.332 55.3607 111.539 52.6348 111.997 50.4853C112.226 49.4065 112.268 48.4704 112.252 47.8073C112.244 47.4762 112.222 47.2142 112.203 47.0382C112.193 46.9503 112.184 46.8838 112.177 46.8411C112.174 46.8197 112.172 46.8043 112.17 46.795C112.169 46.7907 112.169 46.7877 112.168 46.7861V46.7855C112.106 46.4442 112.331 46.1166 112.672 46.0535Z" fill="#79DDFF"/>
<path d="M88.6343 62.8638C89.5018 62.8638 90.2051 63.5676 90.2051 64.4358C90.2051 65.304 89.5018 66.0078 88.6343 66.0078H82.9791C82.1115 66.0078 81.4082 65.304 81.4082 64.4358C81.4082 63.5676 82.1115 62.8638 82.9791 62.8638H88.6343Z" fill="#79DDFF"/>
<path d="M104.236 82.162L113.049 93.8483C115.549 97.0288 116.669 100.734 114.489 103.106C112.627 105.132 108.505 103.989 104.965 101.661L93.2143 93.5831C90.0628 90.5374 89.975 85.5116 93.0184 82.3578C96.0618 79.204 101.084 79.1164 104.236 82.162Z" fill="url(#paint3_linear_128_3641)"/>
<path d="M50.1852 93.2955L38.0621 101.492C34.7575 103.824 31.0018 104.749 28.7482 102.446C26.8243 100.479 28.1806 96.4199 30.6895 93.0039L39.3651 81.6838C42.5694 78.6936 47.5892 78.8689 50.5771 82.0754C53.5649 85.2818 53.3895 90.3053 50.1852 93.2955Z" fill="url(#paint4_linear_128_3641)"/>
</g>
<defs>
<filter id="filter0_d_128_3641" x="0" y="0" width="121" height="144" filterUnits="userSpaceOnUse" color-interpolation-filters="sRGB">
<feFlood flood-opacity="0" result="BackgroundImageFix"/>
<feColorMatrix in="SourceAlpha" type="matrix" values="0 0 0 0 0 0 0 0 0 0 0 0 0 0 0 0 0 0 127 0" result="hardAlpha"/>
<feOffset dx="-11" dy="4"/>
<feGaussianBlur stdDeviation="6"/>
<feComposite in2="hardAlpha" operator="out"/>
<feColorMatrix type="matrix" values="0 0 0 0 0 0 0 0 0 0 0 0 0 0 0 0 0 0 0.16 0"/>
<feBlend mode="normal" in2="BackgroundImageFix" result="effect1_dropShadow_128_3641"/>
<feBlend mode="normal" in="SourceGraphic" in2="effect1_dropShadow_128_3641" result="shape"/>
</filter>
<linearGradient id="paint0_linear_128_3641" x1="66.5308" y1="109.035" x2="66.5308" y2="129.962" gradientUnits="userSpaceOnUse">
<stop stop-color="#DFDFDF"/>
<stop offset="0.5" stop-color="#F5F5F5"/>
<stop offset="1" stop-color="#B5D6F4"/>
</linearGradient>
<linearGradient id="paint1_linear_128_3641" x1="41.1548" y1="95.0115" x2="93.9364" y2="96.2673" gradientUnits="userSpaceOnUse">
<stop stop-color="#DFDFDF"/>
<stop offset="0.5" stop-color="#F5F5F5"/>
<stop offset="1" stop-color="white"/>
</linearGradient>
<linearGradient id="paint2_linear_128_3641" x1="4.96193" y1="46.3574" x2="100.157" y2="46.0434" gradientUnits="userSpaceOnUse">
<stop stop-color="#DFDFDF"/>
<stop offset="0.5" stop-color="#F5F5F5"/>
<stop offset="1" stop-color="#F1F6FB"/>
</linearGradient>
<linearGradient id="paint3_linear_128_3641" x1="87.5734" y1="76.3829" x2="115.545" y2="104.837" gradientUnits="userSpaceOnUse">
<stop stop-color="#DFDFDF"/>
<stop offset="0.5" stop-color="#F5F5F5"/>
<stop offset="1" stop-color="white"/>
</linearGradient>
<linearGradient id="paint4_linear_128_3641" x1="56.8245" y1="76.9465" x2="26.9273" y2="103.368" gradientUnits="userSpaceOnUse">
<stop stop-color="#DFDFDF"/>
<stop offset="0.5" stop-color="#F5F5F5"/>
<stop offset="1" stop-color="white"/>
</linearGradient>
</defs>
</svg>
