<svg width="22" height="22" viewBox="0 0 22 22" fill="none" xmlns="http://www.w3.org/2000/svg">
<g clip-path="url(#paint0_angular_2003_1794_clip_path)" data-figma-skip-parse="true"><g transform="matrix(0.006 0.0103923 -0.0103923 0.006 11 11)"><foreignObject x="-1366.03" y="-1366.03" width="2732.05" height="2732.05"><div xmlns="http://www.w3.org/1999/xhtml" style="background:conic-gradient(from 90deg,rgba(136, 201, 217, 1) 0deg,rgba(171, 223, 208, 1) 22.5deg,rgba(37, 137, 244, 1) 294.231deg,rgba(136, 201, 217, 1) 360deg);height:100%;width:100%;opacity:1"></div></foreignObject></g></g><path d="M20 11C20 11.5523 20.4477 12 21 12C21.5523 12 22 11.5523 22 11H21H20ZM11 22C11.5523 22 12 21.5523 12 21C12 20.4477 11.5523 20 11 20V21V22ZM11 21V20C6.02944 20 2 15.9706 2 11H1H0C0 17.0751 4.92487 22 11 22V21ZM1 11H2C2 6.02944 6.02944 2 11 2V1V0C4.92487 0 0 4.92487 0 11H1ZM11 1V2C15.9706 2 20 6.02944 20 11H21H22C22 4.92487 17.0751 0 11 0V1Z" data-figma-gradient-fill="{&#34;type&#34;:&#34;GRADIENT_ANGULAR&#34;,&#34;stops&#34;:[{&#34;color&#34;:{&#34;r&#34;:0.67058825492858887,&#34;g&#34;:0.87450981140136719,&#34;b&#34;:0.81568628549575806,&#34;a&#34;:1.0},&#34;position&#34;:0.06250},{&#34;color&#34;:{&#34;r&#34;:0.14509804546833038,&#34;g&#34;:0.53725492954254150,&#34;b&#34;:0.95686274766921997,&#34;a&#34;:1.0},&#34;position&#34;:0.81730771064758301}],&#34;stopsVar&#34;:[{&#34;color&#34;:{&#34;r&#34;:0.67058825492858887,&#34;g&#34;:0.87450981140136719,&#34;b&#34;:0.81568628549575806,&#34;a&#34;:1.0},&#34;position&#34;:0.06250},{&#34;color&#34;:{&#34;r&#34;:0.14509804546833038,&#34;g&#34;:0.53725492954254150,&#34;b&#34;:0.95686274766921997,&#34;a&#34;:1.0},&#34;position&#34;:0.81730771064758301}],&#34;transform&#34;:{&#34;m00&#34;:11.999999046325684,&#34;m01&#34;:-20.784608840942383,&#34;m02&#34;:15.392304420471191,&#34;m10&#34;:20.784608840942383,&#34;m11&#34;:11.999999046325684,&#34;m12&#34;:-5.3923044204711914},&#34;opacity&#34;:1.0,&#34;blendMode&#34;:&#34;NORMAL&#34;,&#34;visible&#34;:true}"/>
<defs>
<clipPath id="paint0_angular_2003_1794_clip_path"><path d="M20 11C20 11.5523 20.4477 12 21 12C21.5523 12 22 11.5523 22 11H21H20ZM11 22C11.5523 22 12 21.5523 12 21C12 20.4477 11.5523 20 11 20V21V22ZM11 21V20C6.02944 20 2 15.9706 2 11H1H0C0 17.0751 4.92487 22 11 22V21ZM1 11H2C2 6.02944 6.02944 2 11 2V1V0C4.92487 0 0 4.92487 0 11H1ZM11 1V2C15.9706 2 20 6.02944 20 11H21H22C22 4.92487 17.0751 0 11 0V1Z"/></clipPath></defs>
</svg>
